<?xml version="1.0" encoding="UTF-8"?>
<svg version="1.1" xmlns="http://www.w3.org/2000/svg" width="768" height="126">
<path d="M0 0 C34.32 0 68.64 0 104 0 C111.85121059 23.55363176 111.85121059 23.55363176 114.125 32.1875 C117.44122277 44.40169659 121.18009543 56.47825437 124.9375 68.5625 C125.38624481 70.00573135 125.38624481 70.00573135 125.84405518 71.4781189 C127.5581419 76.98684265 129.27712215 82.49401974 131 88 C131.99 87.67 132.98 87.34 134 87 C134.08685059 86.10482666 134.17370117 85.20965332 134.26318359 84.28735352 C135.09883377 78.48954338 137.03361644 72.97376198 138.7890625 67.40234375 C139.17057465 66.1770546 139.55208679 64.95176544 139.94515991 63.68934631 C140.96024362 60.42975458 141.98184083 57.17223975 143.00476074 53.9151001 C144.01906942 50.68103048 145.02672006 47.44488882 146.03515625 44.20898438 C150.63676309 29.45558945 155.30040764 14.72244953 160 0 C168.25 0 176.5 0 185 0 C181.5640405 12.59851818 177.69770419 25.01631844 173.7167263 37.45000839 C173.02057859 39.62462971 172.32550188 41.79959093 171.63069153 43.97463989 C169.65788564 50.14991545 167.68371913 56.32475494 165.70776367 62.49902344 C160.01276006 80.29645435 154.38625894 98.10590125 149 116 C137.78 116 126.56 116 115 116 C108.18496377 95.74453774 101.61339186 75.43836339 95.27526855 55.02984619 C94.17671998 51.4950852 93.07444425 47.96148667 91.97265625 44.42773438 C88.59868902 33.60170095 85.2288537 22.77460782 81.91513062 11.9299469 C80.98160427 8.94110292 79.99018482 5.97055446 79 3 C78.67 9.27 78.34 15.54 78 22 C59.85 22 41.7 22 23 22 C23.33 29.59 23.66 37.18 24 45 C23.67 45.66 23.34 46.32 23 47 C39.5 47 56 47 73 47 C73 53.6 73 60.2 73 67 C56.5 67 40 67 23 67 C23.36824956 75.4668165 23.36824956 75.4668165 23.74829102 83.93310547 C23.79139404 84.98385254 23.83449707 86.03459961 23.87890625 87.1171875 C23.9260376 88.19597168 23.97316895 89.27475586 24.02172852 90.38623047 C24 93 24 93 23 95 C41.15 95 59.3 95 78 95 C78 101.93 78 108.86 78 116 C52.26 116 26.52 116 0 116 C0 77.72 0 39.44 0 0 Z " fill="#FEFEFD" transform="translate(488,3)"/>
<path d="M0 0 C0.93963593 -0.0033284 1.87927185 -0.0066568 2.84738159 -0.01008606 C4.84990956 -0.01516599 6.85244606 -0.01749406 8.85498047 -0.01733398 C11.86831501 -0.01948739 14.88126324 -0.03753791 17.89453125 -0.05664062 C37.977287 -0.11642344 58.70197543 0.55420123 74.5546875 14.60546875 C75.2971875 15.45109375 76.0396875 16.29671875 76.8046875 17.16796875 C77.28421875 17.64492188 77.76375 18.121875 78.2578125 18.61328125 C88.40730974 29.22411927 90.84981699 45.04888529 90.8046875 59.16796875 C90.25983338 74.93425368 86.73003825 89.21720112 75.8046875 101.16796875 C62.8700638 112.80913008 48.03014161 116.40982311 31.11328125 116.58203125 C29.92742935 116.6013974 28.74157745 116.62076355 27.51979065 116.64071655 C23.76066102 116.70013069 20.00150013 116.74674473 16.2421875 116.79296875 C13.68162783 116.83118364 11.12108054 116.87023738 8.56054688 116.91015625 C2.3087042 117.00580066 -3.943214 117.09095817 -10.1953125 117.16796875 C-10.21864219 102.06072184 -10.23629202 86.95347632 -10.24712467 71.84621525 C-10.25228748 64.83212241 -10.25932989 57.81804075 -10.27075195 50.80395508 C-10.28175938 44.04128807 -10.28758869 37.27863511 -10.29018974 30.51595879 C-10.29204453 27.92944595 -10.29566617 25.34293378 -10.30104256 22.75642586 C-10.30824901 19.1475802 -10.30930361 15.53878328 -10.30883789 11.92993164 C-10.31243317 10.84884125 -10.31602844 9.76775085 -10.31973267 8.65390015 C-10.318358 7.67648361 -10.31698334 6.69906708 -10.31556702 5.69203186 C-10.31648881 4.83752976 -10.3174106 3.98302767 -10.31836033 3.10263157 C-10.00342135 -1.84910746 -3.75860832 0.00459518 0 0 Z M13.8046875 22.16796875 C13.8046875 46.25796875 13.8046875 70.34796875 13.8046875 95.16796875 C38.57499261 95.90136561 38.57499261 95.90136561 58.8046875 84.16796875 C66.17097009 74.49589687 67.40381945 62.97742738 66.59375 51.06640625 C65.20727105 41.77961329 61.35501908 34.61491292 54.046875 28.671875 C41.78033101 20.44431501 28.34319179 22.16796875 13.8046875 22.16796875 Z " fill="#FEFEFD" transform="translate(390.1953125,2.83203125)"/>
<path d="M0 0 C12.30352165 11.32511039 16.36925459 27.77324273 17.203125 43.9375 C17.56854611 62.97896583 14.15027938 81.37319803 1 96 C-11.13434246 106.8443127 -25.12158371 108.61948852 -40.67529297 108.13183594 C-53.17617131 107.42290144 -63.381326 101.65217647 -71.89453125 92.671875 C-80.88227659 81.26627609 -84.22722759 67.24799124 -85 53 C-85.04125 52.32195312 -85.0825 51.64390625 -85.125 50.9453125 C-85.66588275 33.02857126 -81.05978486 17.32726521 -70.6875 2.75 C-52.09537553 -16.27449946 -20.04885534 -16.98050878 0 0 Z M-54 20 C-59.68815318 28.73434689 -61.38541012 38.03639937 -61.3125 48.3125 C-61.30758545 49.13919189 -61.3026709 49.96588379 -61.29760742 50.81762695 C-61.07245123 62.65391495 -58.34498588 71.8327086 -50.5625 80.8125 C-44.6060905 85.89723982 -38.70597243 87.16729384 -31 87 C-24.86004139 86.01337824 -18.9305293 84.05832321 -15 79 C-9.07543237 69.24440185 -6.60597353 60.01618551 -6.6875 48.6875 C-6.69313965 47.85935791 -6.6987793 47.03121582 -6.70458984 46.17797852 C-6.94302357 34.06153187 -9.87783494 23.63234549 -18.25 14.5625 C-30.90330218 7.37312376 -44.37218348 8.79557598 -54 20 Z " fill="#FEFEFD" transform="translate(157,13)"/>
<path d="M0 0 C0.763125 0.886875 1.52625 1.77375 2.3125 2.6875 C3.14201172 3.60595703 3.14201172 3.60595703 3.98828125 4.54296875 C17.55544149 20.49237126 17.52347833 41.85772988 16.3125 61.6875 C14.66195285 75.92346921 8.29858566 89.3118565 -2.6875 98.6875 C-16.29213929 107.6199613 -31.57505794 109.89432174 -47.4609375 107 C-59.97790852 103.43221729 -69.63586801 97.07252181 -76.41015625 85.828125 C-79.82429636 79.35216391 -82.17536033 72.84568634 -83.6875 65.6875 C-83.87183594 64.81867188 -84.05617187 63.94984375 -84.24609375 63.0546875 C-86.76970017 43.80381379 -85.28120846 21.93075264 -73.375 5.875 C-64.56789482 -4.57635014 -54.57201343 -10.21543393 -40.89453125 -12.09765625 C-25.51762121 -13.12777812 -11.8185352 -10.16943726 0 0 Z M-53.6875 18.6875 C-59.54560462 27.96412721 -61.08025836 37.09301248 -61.0625 47.875 C-61.06088867 48.89005615 -61.05927734 49.9051123 -61.05761719 50.95092773 C-60.89556276 60.89741535 -59.50262397 70.92583104 -52.6875 78.6875 C-47.09252789 83.84536491 -41.90172333 86.62919399 -34.2421875 86.71484375 C-26.67143625 86.26337693 -20.65641574 84.12338171 -15.4375 78.5 C-6.70449049 67.20404205 -5.8521091 52.65898271 -7.21484375 38.875 C-8.61883202 29.40678156 -11.70046388 21.76515058 -18.4375 14.875 C-29.856259 7.18929683 -44.51750174 7.77954696 -53.6875 18.6875 Z " fill="#FEFEFD" transform="translate(263.6875,13.3125)"/>
<path d="M0 0 C14.10856685 -0.68340744 27.43171725 3.72101044 39.81640625 10.26171875 C39.18594022 13.0433457 38.34325392 15.54664401 37.1875 18.15234375 C36.87490234 18.86132812 36.56230469 19.5703125 36.24023438 20.30078125 C35.91474609 21.03039062 35.58925781 21.76 35.25390625 22.51171875 C34.92455078 23.25679687 34.59519531 24.001875 34.25585938 24.76953125 C33.44555559 26.60152243 32.63136191 28.4317922 31.81640625 30.26171875 C28.29397889 29.13775333 24.99320771 27.9190936 21.69140625 26.26171875 C12.12229567 21.95159835 0.09972513 20.5326378 -10.05859375 23.44921875 C-13.9725172 24.94816816 -16.28359642 26.37536057 -18.18359375 30.26171875 C-18.51726385 33.19920733 -18.41969359 35.56477365 -17.18359375 38.26171875 C-12.91982653 42.51254586 -8.92375962 44.41158818 -3.24609375 46.19921875 C-1.73615072 46.70456259 -0.22705009 47.21242963 1.28125 47.72265625 C2.03776855 47.9762793 2.79428711 48.22990234 3.57373047 48.49121094 C31.73601419 58.16682246 31.73601419 58.16682246 39.203125 69.3359375 C43.195668 77.58719304 43.2294508 88.24164731 41.15625 97.07421875 C37.79150639 105.4642288 31.0330343 112.5616026 22.81640625 116.26171875 C4.92046329 123.36883151 -18.27629639 122.69404549 -36.10839844 115.48339844 C-39.58005738 113.93738233 -42.90936184 112.18773752 -46.18359375 110.26171875 C-44.74035906 105.5238271 -42.81132642 101.27313724 -40.55859375 96.88671875 C-40.23375 96.24605469 -39.90890625 95.60539062 -39.57421875 94.9453125 C-38.78101968 93.38224374 -37.98282344 91.82171253 -37.18359375 90.26171875 C-36.52875 90.58785156 -35.87390625 90.91398437 -35.19921875 91.25 C-21.56366107 97.77888991 -6.85563889 100.80387378 8.15234375 97.53515625 C11.93386401 96.17114747 14.25178669 94.89276414 16.94140625 91.88671875 C18.0133511 88.6708842 18.37730562 86.62711499 17.81640625 83.26171875 C11.12060424 74.47347861 -1.43272396 72.02163652 -11.453125 68.79296875 C-18.65161741 66.3906714 -24.86000792 63.45557952 -31.18359375 59.26171875 C-32.11171875 58.66359375 -33.03984375 58.06546875 -33.99609375 57.44921875 C-41.24414857 50.20116393 -42.48751123 41.87807348 -42.49829102 31.99780273 C-42.29760236 22.24243423 -38.03502597 15.91609651 -31.18359375 9.26171875 C-22.64327997 1.9414498 -10.76139101 0.88467877 0 0 Z " fill="#FEFEFD" transform="translate(719.18359375,0.73828125)"/>
<path d="M0 0 C0 38.61 0 77.22 0 117 C-7.59 117 -15.18 117 -23 117 C-24.63669759 113.72660483 -24.12902276 110.10779193 -24.11352539 106.51123047 C-24.11367142 105.63311707 -24.11381744 104.75500366 -24.1139679 103.85028076 C-24.11326958 100.9392248 -24.10548095 98.02823232 -24.09765625 95.1171875 C-24.09579178 93.10222407 -24.09436802 91.08726019 -24.09336853 89.07229614 C-24.08954562 83.7622147 -24.07971724 78.4521605 -24.06866455 73.14208984 C-24.05844559 67.72624073 -24.05386987 62.31038722 -24.04882812 56.89453125 C-24.03809479 46.26300885 -24.02102106 35.63150669 -24 25 C-25.24136719 25.28875 -26.48273437 25.5775 -27.76171875 25.875 C-29.40358121 26.25028285 -31.04551192 26.62526718 -32.6875 27 C-33.50412109 27.19078125 -34.32074219 27.3815625 -35.16210938 27.578125 C-36.35610352 27.84882812 -36.35610352 27.84882812 -37.57421875 28.125 C-38.30213623 28.29257812 -39.03005371 28.46015625 -39.7800293 28.6328125 C-42 29 -42 29 -47 29 C-47 22.4 -47 15.8 -47 9 C-40.24850144 6.74950048 -40.24850144 6.74950048 -36.98583984 6.13037109 C-35.89473404 5.92037979 -35.89473404 5.92037979 -34.78158569 5.70614624 C-34.01577179 5.56335236 -33.24995789 5.42055847 -32.4609375 5.2734375 C-31.65766022 5.12089508 -30.85438293 4.96835266 -30.02676392 4.81118774 C-28.33788792 4.49155639 -26.64861902 4.17399483 -24.95898438 3.85839844 C-22.37515238 3.37502851 -19.79301147 2.88328982 -17.2109375 2.390625 C-15.56519848 2.08022868 -13.91936814 1.77031612 -12.2734375 1.4609375 C-11.11864395 1.24067398 -11.11864395 1.24067398 -9.94052124 1.01596069 C-6.54288405 0.38604807 -3.47007628 0 0 0 Z " fill="#FEFEFD" transform="translate(57,2)"/>
<path d="M0 0 C18.76977569 -1.90456941 18.76977569 -1.90456941 23.86083984 1.09716797 C27.09863142 4.19235411 28.99079241 8.05581662 31 12 C32.29559137 13.69617174 33.61793837 15.37351262 35 17 C35.51949219 16.27554688 36.03898437 15.55109375 36.57421875 14.8046875 C37.27160156 13.83789062 37.96898437 12.87109375 38.6875 11.875 C39.37199219 10.92367187 40.05648437 9.97234375 40.76171875 8.9921875 C41.50035156 8.00476562 42.23898437 7.01734375 43 6 C43.680625 4.8965625 44.36125 3.793125 45.0625 2.65625 C49.49977299 -1.35617771 53.55337602 -0.6624035 59.3125 -0.375 C60.33923828 -0.34792969 61.36597656 -0.32085937 62.42382812 -0.29296875 C64.95137576 -0.22243254 67.47460043 -0.12393429 70 0 C68.74536727 3.76389819 66.81237172 5.19544042 64 8 C61.91656462 10.56368964 59.95871499 13.21532355 58 15.875 C57.49210937 16.55691406 56.98421875 17.23882812 56.4609375 17.94140625 C55.45458816 19.29610729 54.45571552 20.65639833 53.46484375 22.02246094 C52.49058751 23.33770686 51.48223883 24.62838559 50.44140625 25.89160156 C48.79733482 27.8690239 48.79733482 27.8690239 47 31 C47.70240747 35.10969984 50.35734026 38.05245341 52.875 41.3125 C53.66519531 42.34890625 54.45539063 43.3853125 55.26953125 44.453125 C56.70972695 46.32618399 58.15226213 48.19742344 59.59521484 50.06835938 C61.25714053 52.22842452 62.90996947 54.39524282 64.5625 56.5625 C65.0992334 57.2531958 65.6359668 57.9438916 66.18896484 58.65551758 C66.68477051 59.30673584 67.18057617 59.9579541 67.69140625 60.62890625 C68.13685791 61.20713135 68.58230957 61.78535645 69.04125977 62.38110352 C70 64 70 64 70 67 C51.76833453 68.78953603 51.76833453 68.78953603 45.68212891 64.28417969 C41.34416482 59.73726981 38.00608174 54.50013856 35 49 C31.55549193 50.14816936 31.44597604 50.53207932 29.8203125 53.5625 C23.01860744 65.01745961 23.01860744 65.01745961 17.38378906 66.8515625 C11.26709998 67.77547022 5.14485689 67.57338181 -1 67 C-0.15063992 62.86548411 1.9342576 60.1397682 4.5 56.875 C7.51409067 53.11033356 7.51409067 53.11033356 10 49 C10.66 49 11.32 49 12 49 C12.24234375 48.45214844 12.4846875 47.90429688 12.734375 47.33984375 C14.83072779 43.46417918 17.75503527 40.17608558 20.515625 36.75390625 C22.34727681 34.13220143 22.34727681 34.13220143 21.28320312 31.60058594 C20.0247148 29.0500879 18.65506331 26.9114934 16.953125 24.63671875 C16.0559375 23.42918945 16.0559375 23.42918945 15.140625 22.19726562 C14.51671875 21.36904297 13.8928125 20.54082031 13.25 19.6875 C12.33734375 18.46256836 12.33734375 18.46256836 11.40625 17.21289062 C9.02584808 14.02121925 6.64350547 10.83280275 4.20898438 7.68212891 C3.66048828 6.96847168 3.11199219 6.25481445 2.546875 5.51953125 C2.05541992 4.88764893 1.56396484 4.2557666 1.05761719 3.60473633 C0 2 0 2 0 0 Z " fill="#08F96F" transform="translate(304,44)"/>
<path d="M0 0 C2.475 0.99 2.475 0.99 5 2 C5.33 1.67 5.66 1.34 6 1 C7.66617115 0.95936168 9.33388095 0.957279 11 1 C11.33 1.99 11.66 2.98 12 4 C15.465 3.505 15.465 3.505 19 3 C23 8.75 23 8.75 23 11 C22.01 11.495 22.01 11.495 21 12 C19.86649466 14.01669827 19.86649466 14.01669827 19 16 C19 15.34 19 14.68 19 14 C18.071875 13.855625 17.14375 13.71125 16.1875 13.5625 C13 13 13 13 10 12 C10.020625 13.299375 10.04125 14.59875 10.0625 15.9375 C10.08399454 17.29165633 10.07148199 18.64756083 10 20 C9 21 9 21 6.71484375 21.09765625 C5.34005859 21.08025391 5.34005859 21.08025391 3.9375 21.0625 C3.01839844 21.05347656 2.09929687 21.04445313 1.15234375 21.03515625 C0.44207031 21.02355469 -0.26820313 21.01195313 -1 21 C-0.505 16.545 -0.505 16.545 0 12 C-0.99 11.67 -1.98 11.34 -3 11 C-4.18519265 8.56723614 -5 6.71982714 -5 4 C-3.37373596 2.61767557 -1.7074998 1.28062485 0 0 Z " fill="#20F86F" transform="translate(328,61)"/>
<path d="M0 0 C0.556875 0.9590625 0.556875 0.9590625 1.125 1.9375 C3.58052793 4.63858072 5.44578805 4.68407005 9 5 C8.01 5.99 7.02 6.98 6 8 C6.66 9.32 7.32 10.64 8 12 C7.01 12.495 7.01 12.495 6 13 C4.86649466 15.01669827 4.86649466 15.01669827 4 17 C2.68 17 1.36 17 0 17 C0 18.65 0 20.3 0 22 C-1.32 21.34 -2.64 20.68 -4 20 C-4 20.66 -4 21.32 -4 22 C-3.34 22 -2.68 22 -2 22 C-2 22.99 -2 23.98 -2 25 C-7.94 25 -13.88 25 -20 25 C-15.50384615 18.25576923 -15.50384615 18.25576923 -13.4921875 15.67578125 C-12.84830078 14.84530273 -12.84830078 14.84530273 -12.19140625 13.99804688 C-11.53978516 13.16370117 -11.53978516 13.16370117 -10.875 12.3125 C-8.49662416 9.25805522 -6.14915114 6.22372671 -4 3 C-3.34 3 -2.68 3 -2 3 C-2 2.34 -2 1.68 -2 1 C-1.34 0.67 -0.68 0.34 0 0 Z " fill="#03FA6E" transform="translate(325,84)"/>
<path d="M0 0 C3.7122551 3.33151098 5.08814833 5.18021262 6 10 C7.88316159 11.10836423 7.88316159 11.10836423 10 12 C13 15.42857143 13 15.42857143 13 18 C10.91695462 18.05418326 8.83350232 18.09287551 6.75 18.125 C5.58984375 18.14820312 4.4296875 18.17140625 3.234375 18.1953125 C0.17213954 18.0103949 -1.44202751 17.60823023 -4 16 C-4 14.68 -4 13.36 -4 12 C-5.32 11.67 -6.64 11.34 -8 11 C-8 10.01 -8 9.02 -8 8 C-6.68 8 -5.36 8 -4 8 C-3.566875 6.8553125 -3.566875 6.8553125 -3.125 5.6875 C-2 3 -2 3 0 0 Z " fill="#02FA6F" transform="translate(358,91)"/>
<path d="M0 0 C1.32 0 2.64 0 4 0 C4.268125 0.804375 4.53625 1.60875 4.8125 2.4375 C5.204375 3.283125 5.59625 4.12875 6 5 C6.99 5.33 7.98 5.66 9 6 C8.49396008 8.16874252 8.00016187 9.99967627 7 12 C4.525 11.505 4.525 11.505 2 11 C2 10.34 2 9.68 2 9 C0.04783565 10.95216435 -0.84826645 12.53199953 -2 15 C-2.66 15 -3.32 15 -4 15 C-4 13.68 -4 12.36 -4 11 C-4.66 11 -5.32 11 -6 11 C-6 11.66 -6 12.32 -6 13 C-6.66 13 -7.32 13 -8 13 C-8.33 13.99 -8.66 14.98 -9 16 C-9.66 16 -10.32 16 -11 16 C-11.33 14.68 -11.66 13.36 -12 12 C-11.1028125 11.6596875 -11.1028125 11.6596875 -10.1875 11.3125 C-7.42160425 9.65296255 -6.53725883 7.79501605 -5 5 C-4.34 4.34 -3.68 3.68 -3 3 C-2.01 3 -1.02 3 0 3 C0 2.01 0 1.02 0 0 Z " fill="#01F96D" transform="translate(354,47)"/>
<path d="M0 0 C0.99 0.33 1.98 0.66 3 1 C3 1.66 3 2.32 3 3 C6.465 2.505 6.465 2.505 10 2 C14 7.75 14 7.75 14 10 C13.01 10.495 13.01 10.495 12 11 C10.86649466 13.01669827 10.86649466 13.01669827 10 15 C10 14.34 10 13.68 10 13 C9.34 13 8.68 13 8 13 C7.67 11.68 7.34 10.36 7 9 C4.69 8.67 2.38 8.34 0 8 C-0.33 8.66 -0.66 9.32 -1 10 C-3.475 9.01 -3.475 9.01 -6 8 C-6 6.68 -6 5.36 -6 4 C-4.68 4 -3.36 4 -2 4 C-1.34 2.68 -0.68 1.36 0 0 Z " fill="#04FA6E" transform="translate(337,62)"/>
<path d="M0 0 C5.61 0 11.22 0 17 0 C14.96764154 7.87538903 11.34025457 12.9240334 6 19 C5.34 17.68 4.68 16.36 4 15 C5.32 14.67 6.64 14.34 8 14 C8.33 12.35 8.66 10.7 9 9 C8.34 8.5875 7.68 8.175 7 7.75 C6.34 7.1725 5.68 6.595 5 6 C5 4.68 5 3.36 5 2 C3.35 2.33 1.7 2.66 0 3 C0 2.01 0 1.02 0 0 Z " fill="#1CF873" transform="translate(353,45)"/>
<path d="M0 0 C2 0 2 0 4.125 1.8125 C6 4 6 4 6 7 C6.66 7 7.32 7 8 7 C9.23435061 8.76710099 10.38926416 10.59019568 11.5 12.4375 C13.62241297 16.37836765 13.62241297 16.37836765 17 19 C17.25 22.25 17.25 22.25 17 26 C15.0625 28.25 15.0625 28.25 13 30 C12.67 30.99 12.34 31.98 12 33 C10.67708867 34.34367451 9.34143145 35.67481426 8 37 C5.76180447 39.76446434 3.65961801 42.63409885 1.53515625 45.48632812 C-1.79435668 49.89717834 -1.79435668 49.89717834 -4 51 C-2.62159784 48.16661778 -1.13581614 45.44311194 0.5 42.75 C0.9228125 42.04359375 1.345625 41.3371875 1.78125 40.609375 C2.1834375 40.07828125 2.585625 39.5471875 3 39 C3.66 39 4.32 39 5 39 C5.24234375 38.45214844 5.4846875 37.90429688 5.734375 37.33984375 C7.83072779 33.46417918 10.75503527 30.17608558 13.515625 26.75390625 C15.34734942 24.13236403 15.34734942 24.13236403 14.28271484 21.60229492 C13.02497775 19.05067336 11.65178366 16.89341998 9.9609375 14.609375 C9.38085938 13.81789063 8.80078125 13.02640625 8.203125 12.2109375 C7.59984375 11.39882812 6.9965625 10.58671875 6.375 9.75 C5.17247781 8.12126741 3.9718461 6.49113672 2.7734375 4.859375 C2.24153809 4.14233398 1.70963867 3.42529297 1.16162109 2.68652344 C0 1 0 1 0 0 Z " fill="#59E381" transform="translate(311,54)"/>
<path d="M0 0 C1.02673828 0.02707031 2.05347656 0.05414063 3.11132812 0.08203125 C5.63887576 0.15256746 8.16210043 0.25106571 10.6875 0.375 C9.45815985 4.06302044 7.74890622 5.09856973 4.6875 7.375 C5.3475 5.395 6.0075 3.415 6.6875 1.375 C1.0775 1.375 -4.5325 1.375 -10.3125 1.375 C-9.9825 3.025 -9.6525 4.675 -9.3125 6.375 C-10.4571875 6.931875 -10.4571875 6.931875 -11.625 7.5 C-14.54581954 9.21969057 -14.54581954 9.21969057 -15.875 12.5 C-17.3125 15.375 -17.3125 15.375 -19.4375 16.125 C-20.365625 16.24875 -20.365625 16.24875 -21.3125 16.375 C-21.6425 17.035 -21.9725 17.695 -22.3125 18.375 C-22.9725 18.045 -23.6325 17.715 -24.3125 17.375 C-23.08607368 15.66469828 -21.8562139 13.95685846 -20.625 12.25 C-19.94050781 11.29867187 -19.25601562 10.34734375 -18.55078125 9.3671875 C-17.81214844 8.37976562 -17.07351563 7.39234375 -16.3125 6.375 C-15.631875 5.2715625 -14.95125 4.168125 -14.25 3.03125 C-9.81272701 -0.98117771 -5.75912398 -0.2874035 0 0 Z " fill="#2BF770" transform="translate(363.3125,43.625)"/>
<path d="M0 0 C0.66 0.66 1.32 1.32 2 2 C1.01 3.175625 1.01 3.175625 0 4.375 C-2.20201441 6.71512812 -2.20201441 6.71512812 -2 9 C-1.34 9 -0.68 9 0 9 C0 9.66 0 10.32 0 11 C0.99 11 1.98 11 3 11 C3.103125 11.639375 3.20625 12.27875 3.3125 12.9375 C3.539375 13.618125 3.76625 14.29875 4 15 C4.99 15.33 5.98 15.66 7 16 C6.67 17.65 6.34 19.3 6 21 C3.69 21 1.38 21 -1 21 C-0.505 16.545 -0.505 16.545 0 12 C-0.99 11.67 -1.98 11.34 -3 11 C-4.18519265 8.56723614 -5 6.71982714 -5 4 C-3.37373596 2.61767557 -1.7074998 1.28062485 0 0 Z " fill="#06FA6E" transform="translate(328,61)"/>
<path d="M0 0 C1 3 1 3 0.25341797 4.88525391 C-8.07642751 18.69738251 -8.07642751 18.69738251 -14.68115234 20.89013672 C-20.7821588 21.84885143 -26.87249034 21.63352071 -33 21 C-32.6875 19.125 -32.6875 19.125 -32 17 C-31.01 16.34 -30.02 15.68 -29 15 C-29.33 15.99 -29.66 16.98 -30 18 C-24.39 18.33 -18.78 18.66 -13 19 C-13 18.01 -13 17.02 -13 16 C-13.66 16 -14.32 16 -15 16 C-15 15.34 -15 14.68 -15 14 C-14.01 14.33 -13.02 14.66 -12 15 C-11.9071875 14.071875 -11.9071875 14.071875 -11.8125 13.125 C-11 11 -11 11 -8.4375 9.75 C-7.633125 9.5025 -6.82875 9.255 -6 9 C-6 8.01 -6 7.02 -6 6 C-5.01 6 -4.02 6 -3 6 C-3.33 4.68 -3.66 3.36 -4 2 C-3.01 2 -2.02 2 -1 2 C-0.67 1.34 -0.34 0.68 0 0 Z " fill="#56EC82" transform="translate(336,90)"/>
<path d="M0 0 C4.26629384 4.03675299 7.7934872 8.43013238 11.3125 13.125 C12.13717773 14.19814453 12.13717773 14.19814453 12.97851562 15.29296875 C13.75678711 16.32744141 13.75678711 16.32744141 14.55078125 17.3828125 C15.02169189 18.00559082 15.49260254 18.62836914 15.9777832 19.27001953 C17 21 17 21 17 24 C13.39442684 23.9772336 9.7920381 23.8999779 6.1875 23.8125 C5.16333984 23.80669922 4.13917969 23.80089844 3.08398438 23.79492188 C0.2990395 23.71274317 -2.27754808 23.5967412 -5 23 C-7.19921875 20.44921875 -7.19921875 20.44921875 -8 18 C-7.34 18 -6.68 18 -6 18 C-5.34 18.99 -4.68 19.98 -4 21 C-2.07558585 21.50531866 -2.07558585 21.50531866 0.1328125 21.51171875 C0.93847656 21.54716797 1.74414062 21.58261719 2.57421875 21.61914062 C3.41597656 21.64169922 4.25773437 21.66425781 5.125 21.6875 C6.39923828 21.73874023 6.39923828 21.73874023 7.69921875 21.79101562 C9.79901105 21.87359173 11.89948564 21.93846978 14 22 C13.21366078 20.85050412 12.42073742 19.70551011 11.625 18.5625 C11.18414062 17.92441406 10.74328125 17.28632812 10.2890625 16.62890625 C9.07839147 14.86259072 9.07839147 14.86259072 7 14 C6.71125 13.2575 6.4225 12.515 6.125 11.75 C5.10291605 8.87834923 5.10291605 8.87834923 2.9375 6.4375 C1.11014439 4.13856875 0.4220404 2.84877273 0 0 Z " fill="#64EA8E" transform="translate(357,87)"/>
<path d="M0 0 C2.86724686 0.57344937 3.8614515 0.8614515 6 3 C6.33 2.34 6.66 1.68 7 1 C7 1.66 7 2.32 7 3 C7.8971875 3.37125 7.8971875 3.37125 8.8125 3.75 C11.31626919 5.18072525 12.48072388 6.5691582 14 9 C14 9.66 14 10.32 14 11 C11.36 11 8.72 11 6 11 C5.67 10.01 5.34 9.02 5 8 C1.99152582 6.77479736 1.99152582 6.77479736 -1 6 C-0.67 4.02 -0.34 2.04 0 0 Z " fill="#11F96E" transform="translate(357,98)"/>
<path d="M0 0 C0.33 0.99 0.66 1.98 1 3 C3.01508358 3.73323796 3.01508358 3.73323796 5 4 C5.33 5.98 5.66 7.96 6 10 C1.71 10 -2.58 10 -7 10 C-4.75421558 6.59260295 -2.48862878 3.23521742 0 0 Z " fill="#0DF970" transform="translate(312,99)"/>
<path d="M0 0 C5.80205656 5.64524422 5.80205656 5.64524422 8 9 C8 9.66 8 10.32 8 11 C4.6875 12.125 4.6875 12.125 1 13 C0.01 12.34 -0.98 11.68 -2 11 C-2.66 11 -3.32 11 -4 11 C-3.67 9.35 -3.34 7.7 -3 6 C-2.01 6 -1.02 6 0 6 C0 6.66 0 7.32 0 8 C0.66 7.67 1.32 7.34 2 7 C1.34 6.01 0.68 5.02 0 4 C0 2.68 0 1.36 0 0 Z " fill="#15F872" transform="translate(330,51)"/>
<path d="M0 0 C0.99 0.33 1.98 0.66 3 1 C2.47148437 1.59167969 1.94296875 2.18335937 1.3984375 2.79296875 C0.39683594 3.97826172 0.39683594 3.97826172 -0.625 5.1875 C-1.29789062 5.96480469 -1.97078125 6.74210937 -2.6640625 7.54296875 C-4.32846698 9.94398301 -4.32846698 9.94398301 -3.34375 12.625 C-1.81079014 15.33441742 -0.02372216 17.63899081 2 20 C1.67 20.66 1.34 21.32 1 22 C-4.59666667 18.715 -4.59666667 18.715 -6.375 15.5625 C-7.0628413 12.74235065 -7.50323771 10.87564403 -7 8 C-4.625 5.375 -4.625 5.375 -2 3 C-1.34 2.01 -0.68 1.02 0 0 Z " fill="#51EC83" transform="translate(355,65)"/>
<path d="M0 0 C3.582906 -0.14533755 7.16505417 -0.23407931 10.75 -0.3125 C11.76578125 -0.35439453 12.7815625 -0.39628906 13.828125 -0.43945312 C21.39500069 -0.56390832 21.39500069 -0.56390832 24.703125 2.51953125 C25.13109375 3.33808594 25.5590625 4.15664063 26 5 C25.67 5.66 25.34 6.32 25 7 C24.33613281 6.18144531 23.67226563 5.36289062 22.98828125 4.51953125 C19.31860364 1.42548934 16.75137916 1.40362235 12.1875 1.6875 C11.49462891 1.71005859 10.80175781 1.73261719 10.08789062 1.75585938 C8.39098427 1.81437339 6.69520139 1.9040452 5 2 C5.5259375 2.86625 5.5259375 2.86625 6.0625 3.75 C7.14917407 6.35801776 6.93065133 7.39417629 6 10 C4.99421411 8.71283353 3.99553202 7.42011342 3 6.125 C2.443125 5.40570313 1.88625 4.68640625 1.3125 3.9453125 C0 2 0 2 0 0 Z " fill="#61F08B" transform="translate(304,44)"/>
<path d="M0 0 C2.475 0.495 2.475 0.495 5 1 C5 1.99 5 2.98 5 4 C5.61875 4.226875 6.2375 4.45375 6.875 4.6875 C9.66320542 6.40962687 10.16239065 7.87800152 11 11 C10.67 11.99 10.34 12.98 10 14 C8.33041937 11.85637773 6.66423643 9.71026458 5 7.5625 C4.52304687 6.95083984 4.04609375 6.33917969 3.5546875 5.70898438 C0 1.11328125 0 1.11328125 0 0 Z " fill="#52EC7F" transform="translate(338,91)"/>
<path d="M0 0 C5.08648251 4.60962477 9.5335504 10.07585598 13 16 C12.67 16.99 12.34 17.98 12 19 C8.52669684 15.80090498 6.6431646 13.38177227 5 9 C4.319375 8.154375 3.63875 7.30875 2.9375 6.4375 C1.11014439 4.13856875 0.4220404 2.84877273 0 0 Z " fill="#57E986" transform="translate(357,87)"/>
<path d="M0 0 C1.258125 0.226875 2.51625 0.45375 3.8125 0.6875 C3.8125 1.3475 3.8125 2.0075 3.8125 2.6875 C2.4925 2.6875 1.1725 2.6875 -0.1875 2.6875 C-0.5175 4.3375 -0.8475 5.9875 -1.1875 7.6875 C-1.80625 7.048125 -2.425 6.40875 -3.0625 5.75 C-5.01347612 3.64866416 -5.01347612 3.64866416 -7.1875 2.6875 C-5.15110924 -0.49436057 -3.4972064 -0.45804119 0 0 Z " fill="#1EF871" transform="translate(330.1875,81.3125)"/>
<path d="M0 0 C0.99 0 1.98 0 3 0 C3.33 0.99 3.66 1.98 4 3 C4.99 3.33 5.98 3.66 7 4 C7 5.32 7 6.64 7 8 C8.32 8.33 9.64 8.66 11 9 C11 9.33 11 9.66 11 10 C9.35 10 7.7 10 6 10 C5.34 8.68 4.68 7.36 4 6 C3.34 6 2.68 6 2 6 C1.34 4.02 0.68 2.04 0 0 Z " fill="#20F86C" transform="translate(347,99)"/>
<path d="M0 0 C4.455 0.99 4.455 0.99 9 2 C9.33 3.65 9.66 5.3 10 7 C7.29068581 6.84518205 5.53415961 6.51827919 3.5546875 4.59765625 C2.32320358 3.10228292 1.1570163 1.5537076 0 0 Z " fill="#1CF86F" transform="translate(338,82)"/>
<path d="M0 0 C7.26 0 14.52 0 22 0 C20.77065985 3.68802044 19.06140622 4.72356973 16 7 C16.66 5.02 17.32 3.04 18 1 C12.06 1 6.12 1 0 1 C0 0.67 0 0.34 0 0 Z " fill="#77F198" transform="translate(352,44)"/>
<path d="M0 0 C3.93619738 0.56231391 6.79192446 1.61685817 10 4 C10 4.99 10 5.98 10 7 C8.68 7 7.36 7 6 7 C5.67 6.01 5.34 5.02 5 4 C1.99152582 2.77479736 1.99152582 2.77479736 -1 2 C-0.67 1.34 -0.34 0.68 0 0 Z " fill="#22F870" transform="translate(357,102)"/>
<path d="M0 0 C2 3 2 3 2 6 C1.01 6.495 1.01 6.495 0 7 C0.061875 8.423125 0.061875 8.423125 0.125 9.875 C0 13 0 13 -2 15 C-3.45295405 5.98468271 -3.45295405 5.98468271 -1.5625 1.875 C-1.046875 1.25625 -0.53125 0.6375 0 0 Z " fill="#1CF870" transform="translate(320,88)"/>
<path d="M0 0 C0.66 0.33 1.32 0.66 2 1 C-2.455 6.94 -2.455 6.94 -7 13 C-7.66 11.68 -8.32 10.36 -9 9 C-8.071875 8.87625 -8.071875 8.87625 -7.125 8.75 C-4.85973865 8.20746992 -4.85973865 8.20746992 -3.9375 6.1875 C-3.628125 5.465625 -3.31875 4.74375 -3 4 C-2.02418241 2.64886795 -1.02970259 1.31053056 0 0 Z " fill="#4EEE84" transform="translate(366,51)"/>
<path d="M0 0 C0.66 0 1.32 0 2 0 C2 0.99 2 1.98 2 3 C3.65 3.33 5.3 3.66 7 4 C3.73454239 5.88391785 0.71888239 6.49287967 -3 7 C-3 6.01 -3 5.02 -3 4 C-2.01 3.34 -1.02 2.68 0 2 C0 1.34 0 0.68 0 0 Z " fill="#23F66B" transform="translate(334,86)"/>
<path d="M0 0 C0.66 0.33 1.32 0.66 2 1 C2 1.66 2 2.32 2 3 C2.66 3 3.32 3 4 3 C4.33 4.32 4.66 5.64 5 7 C2.03 7 -0.94 7 -4 7 C-4 6.34 -4 5.68 -4 5 C-3.01 4.67 -2.02 4.34 -1 4 C-0.26676204 1.98491642 -0.26676204 1.98491642 0 0 Z " fill="#1DF86E" transform="translate(326,91)"/>
<path d="M0 0 C0.99 0.33 1.98 0.66 3 1 C2.34 2.98 1.68 4.96 1 7 C0.01 7 -0.98 7 -2 7 C-2.33 6.01 -2.66 5.02 -3 4 C-1.5625 1.8125 -1.5625 1.8125 0 0 Z " fill="#1CF970" transform="translate(353,92)"/>
<path d="M0 0 C2.93200474 2.85276137 5.64315404 5.65079784 8 9 C7.67 9.66 7.34 10.32 7 11 C5 10 5 10 4.0625 8.0625 C3.04654078 5.68028507 3.04654078 5.68028507 0 4 C0 2.68 0 1.36 0 0 Z " fill="#4EEB84" transform="translate(330,51)"/>
<path d="M0 0 C0.99 0 1.98 0 3 0 C3.33 0.99 3.66 1.98 4 3 C5.32 3 6.64 3 8 3 C7.34 4.32 6.68 5.64 6 7 C1.2 4.53846154 1.2 4.53846154 0.1875 1.8125 C0.125625 1.214375 0.06375 0.61625 0 0 Z " fill="#22F970" transform="translate(358,48)"/>
<path d="M0 0 C1.32 0.33 2.64 0.66 4 1 C4.33 2.98 4.66 4.96 5 7 C2 6 2 6 0 3 C0 2.01 0 1.02 0 0 Z " fill="#26F770" transform="translate(313,102)"/>
<path d="M0 0 C2.625 -0.1875 2.625 -0.1875 5 0 C4.67 1.32 4.34 2.64 4 4 C2.125 4.625 2.125 4.625 0 5 C-0.66 4.34 -1.32 3.68 -2 3 C-1.34 2.01 -0.68 1.02 0 0 Z " fill="#04F86E" transform="translate(362,47)"/>
<path d="M0 0 C0.66 0.66 1.32 1.32 2 2 C1.34 3.98 0.68 5.96 0 8 C-1.65 7.67 -3.3 7.34 -5 7 C-3.68221547 4.36443095 -1.85780102 2.27730447 0 0 Z " fill="#23F871" transform="translate(322,54)"/>
<path d="M0 0 C1.9375 0.6875 1.9375 0.6875 4 2 C4.75 4.625 4.75 4.625 5 7 C4.34 7 3.68 7 3 7 C3 6.34 3 5.68 3 5 C2.01 4.67 1.02 4.34 0 4 C0 2.68 0 1.36 0 0 Z " fill="#15F96E" transform="translate(353,85)"/>
<path d="M0 0 C0.33 0.66 0.66 1.32 1 2 C1.99 2.33 2.98 2.66 4 3 C4 3.99 4 4.98 4 6 C2.35 6.33 0.7 6.66 -1 7 C-0.67 4.69 -0.34 2.38 0 0 Z " fill="#0CF86C" transform="translate(354,59)"/>
<path d="M0 0 C0.66 0 1.32 0 2 0 C2 1.32 2 2.64 2 4 C-0.25660504 5.60337726 -2.53164435 6.76582217 -5 8 C-3.63055898 5.05043472 -2.12169591 2.47531189 0 0 Z " fill="#5BE67B" transform="translate(351,45)"/>
<path d="M0 0 C0.33 0.66 0.66 1.32 1 2 C2.65 1.67 4.3 1.34 6 1 C5.67 1.99 5.34 2.98 5 4 C2.69 4 0.38 4 -2 4 C-1.34 2.68 -0.68 1.36 0 0 Z " fill="#28F871" transform="translate(307,105)"/>
<path d="M0 0 C0.33 0.66 0.66 1.32 1 2 C-0.11179163 5.33537489 -1.47411298 6.63707344 -4 9 C-4.66 8.67 -5.32 8.34 -6 8 C-4.02 5.36 -2.04 2.72 0 0 Z " fill="#4AE583" transform="translate(345,53)"/>
<path d="M0 0 C0.33 0.66 0.66 1.32 1 2 C1.66 2.33 2.32 2.66 3 3 C2.34 3 1.68 3 1 3 C1.33 3.99 1.66 4.98 2 6 C1.01 6.495 1.01 6.495 0 7 C0 6.34 0 5.68 0 5 C-0.66 5 -1.32 5 -2 5 C-2 3.68 -2 2.36 -2 1 C-1.34 0.67 -0.68 0.34 0 0 Z " fill="#22F86D" transform="translate(324,46)"/>
<path d="M0 0 C1.65 0 3.3 0 5 0 C4.34 1.65 3.68 3.3 3 5 C1.5 3.625 1.5 3.625 0 2 C0 1.34 0 0.68 0 0 Z " fill="#1AF872" transform="translate(313,45)"/>
</svg>
